<svg width="8" height="9" viewBox="0 0 8 9" fill="none" xmlns="http://www.w3.org/2000/svg">
<g clip-path="url(#clip0_13_85)">
<path d="M5.73044 8.04168C5.88515 8.04168 6.03352 7.98022 6.14292 7.87082C6.25231 7.76143 6.31377 7.61305 6.31377 7.45834C6.31377 7.30363 6.25231 7.15526 6.14292 7.04587C6.03352 6.93647 5.88515 6.87501 5.73044 6.87501C5.57573 6.87501 5.42736 6.93647 5.31796 7.04587C5.20856 7.15526 5.14711 7.30363 5.14711 7.45834C5.14711 7.61305 5.20856 7.76143 5.31796 7.87082C5.42736 7.98022 5.57573 8.04168 5.73044 8.04168ZM3.06377 8.04168C3.21848 8.04168 3.36685 7.98022 3.47625 7.87082C3.58565 7.76143 3.6471 7.61305 3.6471 7.45834C3.6471 7.30363 3.58565 7.15526 3.47625 7.04587C3.36685 6.93647 3.21848 6.87501 3.06377 6.87501C2.90906 6.87501 2.76069 6.93647 2.65129 7.04587C2.5419 7.15526 2.48044 7.30363 2.48044 7.45834C2.48044 7.61305 2.5419 7.76143 2.65129 7.87082C2.76069 7.98022 2.90906 8.04168 3.06377 8.04168ZM1.9271 1.85501L1.86044 2.67168C1.8471 2.82834 1.97044 2.95834 2.1271 2.95834H7.23044C7.37044 2.95834 7.4871 2.85168 7.4971 2.71168C7.54044 2.12168 7.09044 1.64168 6.50044 1.64168H2.40377C2.37044 1.49501 2.30377 1.35501 2.20044 1.23834C2.03377 1.06168 1.80044 0.958344 1.56044 0.958344H0.980438C0.843772 0.958344 0.730438 1.07168 0.730438 1.20834C0.730438 1.34501 0.843772 1.45834 0.980438 1.45834H1.56044C1.66377 1.45834 1.76044 1.50168 1.83044 1.57501C1.90044 1.65168 1.93377 1.75168 1.9271 1.85501ZM7.15044 3.45834H2.0371C1.8971 3.45834 1.78377 3.56501 1.77044 3.70168L1.65044 5.15168C1.63899 5.28603 1.65557 5.42129 1.69911 5.54889C1.74266 5.6765 1.81222 5.79368 1.90341 5.89301C1.99459 5.99234 2.1054 6.07166 2.22883 6.12594C2.35225 6.18021 2.4856 6.20828 2.62044 6.20834H6.32711C6.82711 6.20834 7.26711 5.79834 7.30377 5.29834L7.41377 3.74168C7.41694 3.70536 7.41247 3.66879 7.40063 3.63431C7.38879 3.59984 7.36985 3.56823 7.34503 3.54153C7.32021 3.51483 7.29007 3.49363 7.25656 3.4793C7.22304 3.46497 7.18689 3.45783 7.15044 3.45834Z" fill="black"/>
</g>
<defs>
<clipPath id="clip0_13_85">
<rect width="6.76955" height="7.08333" fill="white" transform="translate(0.730438 0.958344)"/>
</clipPath>
</defs>
</svg>
