<svg width="21" height="20" viewBox="0 0 21 20" fill="none" xmlns="http://www.w3.org/2000/svg">
<path d="M16.5333 4.64917H16.2L13.3833 1.8325C13.2733 1.7243 13.1252 1.66367 12.9708 1.66367C12.8165 1.66367 12.6684 1.7243 12.5583 1.8325C12.3333 2.0575 12.3333 2.42417 12.5583 2.6575L14.55 4.64917H6.45001L8.44167 2.6575C8.66667 2.4325 8.66667 2.06583 8.44167 1.8325C8.33164 1.7243 8.18349 1.66367 8.02917 1.66367C7.87485 1.66367 7.72671 1.7243 7.61667 1.8325L4.80834 4.64917H4.475C3.72501 4.64917 2.16667 4.64917 2.16667 6.7825C2.16667 7.59083 2.33334 8.12417 2.68334 8.47417C2.88334 8.6825 3.12501 8.79083 3.38334 8.84917C3.62501 8.9075 3.88334 8.91583 4.13334 8.91583H16.8667C17.125 8.91583 17.3667 8.89917 17.6 8.84917C18.3 8.6825 18.8333 8.1825 18.8333 6.7825C18.8333 4.64917 17.275 4.64917 16.5333 4.64917ZM16.375 10H4.55834C4.04167 10 3.65001 10.4583 3.73334 10.9667L4.43334 15.25C4.66667 16.6833 5.29167 18.3333 8.06667 18.3333H12.7417C15.55 18.3333 16.05 16.925 16.35 15.35L17.1917 10.9917C17.2155 10.8711 17.2122 10.7468 17.1822 10.6277C17.1521 10.5085 17.096 10.3975 17.0179 10.3027C16.9398 10.2078 16.8416 10.1315 16.7304 10.0791C16.6193 10.0268 16.4979 9.99977 16.375 10ZM9.34167 15.375C9.34589 15.4537 9.33404 15.5324 9.30684 15.6063C9.27964 15.6803 9.23767 15.7479 9.18347 15.8051C9.12928 15.8622 9.064 15.9078 8.99162 15.9389C8.91925 15.97 8.84129 15.9861 8.76251 15.9861C8.68372 15.9861 8.60576 15.97 8.53339 15.9389C8.46101 15.9078 8.39573 15.8622 8.34154 15.8051C8.28734 15.7479 8.24537 15.6803 8.21817 15.6063C8.19097 15.5324 8.17912 15.4537 8.18334 15.375V12.625C8.18334 12.3083 8.44167 12.0417 8.76667 12.0417C8.91993 12.0439 9.06617 12.1063 9.17377 12.2154C9.28137 12.3246 9.34169 12.4717 9.34167 12.625V15.375ZM12.9083 15.375C12.9083 15.7 12.65 15.9583 12.325 15.9583C12.0083 15.9583 11.7417 15.7 11.7417 15.375V12.625C11.7417 12.3083 12.0083 12.0417 12.325 12.0417C12.65 12.0417 12.9083 12.3083 12.9083 12.625V15.375Z" fill="#535353"/>
</svg>
