<svg width="10" height="10" viewBox="0 0 10 10" fill="none" xmlns="http://www.w3.org/2000/svg">
<path d="M6.77084 9.37501C6.96423 9.37501 7.1497 9.29819 7.28644 9.16144C7.42319 9.0247 7.50001 8.83923 7.50001 8.64584C7.50001 8.45246 7.42319 8.26699 7.28644 8.13025C7.1497 7.9935 6.96423 7.91668 6.77084 7.91668C6.57746 7.91668 6.39199 7.9935 6.25524 8.13025C6.1185 8.26699 6.04168 8.45246 6.04168 8.64584C6.04168 8.83923 6.1185 9.0247 6.25524 9.16144C6.39199 9.29819 6.57746 9.37501 6.77084 9.37501ZM3.43751 9.37501C3.6309 9.37501 3.81636 9.29819 3.95311 9.16144C4.08985 9.0247 4.16668 8.83923 4.16668 8.64584C4.16668 8.45246 4.08985 8.26699 3.95311 8.13025C3.81636 7.9935 3.6309 7.91668 3.43751 7.91668C3.24412 7.91668 3.05866 7.9935 2.92191 8.13025C2.78517 8.26699 2.70834 8.45246 2.70834 8.64584C2.70834 8.83923 2.78517 9.0247 2.92191 9.16144C3.05866 9.29819 3.24412 9.37501 3.43751 9.37501ZM2.01668 1.64168L1.93334 2.66251C1.91668 2.85834 2.07084 3.02084 2.26668 3.02084H8.64584C8.82084 3.02084 8.96668 2.88751 8.97918 2.71251C9.03334 1.97501 8.47084 1.37501 7.73334 1.37501H2.61251C2.57084 1.19168 2.48751 1.01668 2.35834 0.870843C2.15001 0.65001 1.85834 0.520844 1.55834 0.520844H0.833344C0.66251 0.520844 0.520844 0.66251 0.520844 0.833344C0.520844 1.00418 0.66251 1.14584 0.833344 1.14584H1.55834C1.68751 1.14584 1.80834 1.20001 1.89584 1.29168C1.98334 1.38751 2.02501 1.51251 2.01668 1.64168ZM8.54584 3.64584H2.15418C1.97918 3.64584 1.83751 3.77918 1.82084 3.95001L1.67084 5.76251C1.65654 5.93045 1.67726 6.09952 1.73169 6.25903C1.78612 6.41854 1.87308 6.56502 1.98705 6.68918C2.10103 6.81334 2.23955 6.91248 2.39383 6.98033C2.54811 7.04818 2.7148 7.08326 2.88334 7.08334H7.51668C8.14168 7.08334 8.69168 6.57084 8.73751 5.94584L8.87501 4.00001C8.87898 3.95462 8.87338 3.9089 8.85858 3.8658C8.84378 3.82271 8.8201 3.7832 8.78908 3.74982C8.75806 3.71645 8.72039 3.68995 8.67849 3.67204C8.63659 3.65413 8.5914 3.6452 8.54584 3.64584Z" fill="#FF0000" fill-opacity="0.76"/>
</svg>
